<svg width="20" height="20" viewBox="0 0 20 20" fill="none" xmlns="http://www.w3.org/2000/svg">
<path d="M9.12793 0.77951C9.64948 0.406978 10.3505 0.406977 10.8721 0.77951L18.8721 6.49338C19.2662 6.7749 19.4999 7.22974 19.5 7.71408V17.5422C19.5 18.3706 18.8284 19.0422 18 19.0422H13.583C12.7547 19.042 12.083 18.3705 12.083 17.5422V14.4592C12.083 13.3086 11.1506 12.3752 10 12.3752C8.84941 12.3752 7.91699 13.3086 7.91699 14.4592V17.5422C7.91699 18.3705 7.24527 19.042 6.41699 19.0422H2C1.17157 19.0422 0.5 18.3706 0.5 17.5422V7.71408C0.50007 7.22974 0.733795 6.7749 1.12793 6.49338L9.12793 0.77951Z" fill="#F3F3F3" stroke="#F3F3F3"/>
</svg>
