<svg width="12" height="20" viewBox="0 0 12 20" fill="none" xmlns="http://www.w3.org/2000/svg">
<path d="M6.00195 18.1836C6.09872 18.6428 6.39453 19.029 6.79492 19.2471H6.72266L5.34668 19.249C5.32863 19.2477 5.31037 19.2471 5.29199 19.2471H5.21094C5.61111 19.029 5.90514 18.6426 6.00195 18.1836ZM6.64062 16.3701C6.32647 16.6015 6.08688 16.9392 6.00195 17.3467C5.91653 16.9392 5.67697 16.6022 5.3623 16.3711C5.57178 16.3941 5.78454 16.4072 6 16.4072C6.21645 16.4072 6.43023 16.3933 6.64062 16.3701ZM6 0.75C7.81371 0.750033 9.14546 2.05908 9.14551 3.56445V11.4707C9.14533 12.9778 7.81359 14.2881 6 14.2881C4.18626 14.2881 2.85564 12.9775 2.85547 11.4707V3.56445C2.85552 2.05863 4.18672 0.75 6 0.75Z" stroke="#5E5E5E" stroke-width="1.5"/>
</svg>
