<svg width="32" height="32" viewBox="0 0 32 32" fill="none" xmlns="http://www.w3.org/2000/svg">
<path d="M15.5 10C15.5 6.96243 13.0376 4.5 10 4.5C6.96243 4.5 4.5 6.96243 4.5 10C4.5 13.0376 6.96243 15.5 10 15.5C13.0376 15.5 15.5 13.0376 15.5 10Z" fill="url(#paint0_linear_5509_22201)"/>
<path d="M15.5 10C15.5 6.96243 13.0376 4.5 10 4.5C6.96243 4.5 4.5 6.96243 4.5 10C4.5 13.0376 6.96243 15.5 10 15.5C13.0376 15.5 15.5 13.0376 15.5 10Z" fill="#C2CCFF"/>
<path d="M16.5 22C16.5 18.9624 18.9624 16.5 22 16.5C25.0376 16.5 27.5 18.9624 27.5 22C27.5 25.0376 25.0376 27.5 22 27.5C18.9624 27.5 16.5 25.0376 16.5 22Z" fill="url(#paint1_linear_5509_22201)"/>
<path d="M16.5 22C16.5 18.9624 18.9624 16.5 22 16.5C25.0376 16.5 27.5 18.9624 27.5 22C27.5 25.0376 25.0376 27.5 22 27.5C18.9624 27.5 16.5 25.0376 16.5 22Z" fill="#C2CCFF"/>
<path d="M4.5 20.5C4.5 18.2909 6.29086 16.5 8.5 16.5H14.5C15.0523 16.5 15.5 16.9477 15.5 17.5V23.5C15.5 25.7091 13.7091 27.5 11.5 27.5H5.5C4.94771 27.5 4.5 27.0523 4.5 26.5V20.5Z" fill="#5C77FF"/>
<path d="M27.5 11.5C27.5 13.7091 25.7091 15.5 23.5 15.5H17.5C16.9477 15.5 16.5 15.0523 16.5 14.5V8.5C16.5 6.29086 18.2909 4.5 20.5 4.5H26.5C27.0523 4.5 27.5 4.94772 27.5 5.5V11.5Z" fill="#5C77FF"/>
<circle cx="10" cy="10" r="2" fill="#8599FF"/>
<circle cx="22" cy="22" r="2" fill="#8599FF"/>
<defs>
<linearGradient id="paint0_linear_5509_22201" x1="15.5" y1="10" x2="4.5" y2="10" gradientUnits="userSpaceOnUse">
<stop stop-color="#BBBDC9"/>
<stop offset="1" stop-color="#DDDEE4"/>
</linearGradient>
<linearGradient id="paint1_linear_5509_22201" x1="16.5" y1="22" x2="27.5" y2="22" gradientUnits="userSpaceOnUse">
<stop stop-color="#BBBDC9"/>
<stop offset="1" stop-color="#DDDEE4"/>
</linearGradient>
</defs>
</svg>
