<svg width="70" height="70" viewBox="0 0 70 70" fill="none" xmlns="http://www.w3.org/2000/svg">
<path d="M35 70C15.67 70 0 54.33 0 35C0 15.67 15.67 0 35 0C50.913 0 64.3456 10.6196 68.5973 25.1584C69.5103 28.2803 70 31.583 70 35C70 38.417 69.5103 41.7197 68.5973 44.8416C64.3456 59.3804 50.913 70 35 70Z" fill="#6A36FE"/>
<path d="M35 64C18.9837 64 6 51.0163 6 35C6 18.9837 18.9837 6 35 6C48.185 6 59.3149 14.7991 62.8378 26.8455C63.5943 29.4323 64 32.1688 64 35C64 37.8312 63.5943 40.5677 62.8378 43.1545C59.3149 55.2009 48.185 64 35 64Z" fill="url(#paint0_linear_5509_21553)"/>
<g clip-path="url(#clip0_5509_21553)">
<path d="M27.8513 29.1856L38.4852 29.1856L38.4852 35.9013L34.0241 35.9013L38.4853 40.1992L34.6955 40.1992L30.3204 35.9013L30.3204 40.1992L27.8513 40.1992L27.8513 33.3721L35.6481 33.3721L35.648 31.7379L27.8513 31.7378L27.8513 29.1856Z" fill="white"/>
<path d="M39.5895 40.1992L42.1884 40.1992L42.1883 29.1633L39.5895 29.1633L39.5895 40.1992Z" fill="white"/>
<path d="M18.7772 37.5354L18.7772 29.1856L16.7414 29.1856C16.3732 29.1856 16.0916 29.4769 16.0916 29.8346C16.0916 31.8051 16.07 37.6026 16.07 39.5276C16.07 39.8858 16.3516 40.1992 16.6981 40.1992C18.1058 40.1992 22.1556 40.1992 22.7401 40.1992L22.7401 37.5354L18.7772 37.5354Z" fill="white"/>
<path d="M24.0829 42.9531C24.3214 42.9531 26.1405 42.9531 26.7471 42.9531C26.7471 42.9531 26.7471 37.5135 26.7471 37.424C25.8806 37.424 24.9714 37.424 24.0829 37.424C24.0829 39.2596 24.0829 41.0951 24.0829 42.9531Z" fill="white"/>
<path d="M20.0766 29.1862C20.0766 29.2313 20.0766 31.9394 20.0766 31.9394C21.2678 31.9394 22.7835 31.9394 24.0829 31.9394C24.0829 33.8427 24.0829 36.0586 24.0829 36.0586C24.6895 36.0586 26.5086 36.0586 26.7471 36.0586L26.7471 29.8581C26.7471 29.4996 26.4651 29.2083 26.1191 29.1862C24.8198 29.1862 21.7441 29.1862 20.0766 29.1862Z" fill="white"/>
<path d="M20.0766 33.2817C20.0766 34.1997 20.0766 35.1177 20.0766 36.0801C20.2932 36.0801 20.5314 36.0801 20.748 36.0801C21.3547 36.0801 22.1122 36.0801 22.7188 36.0801C22.7188 36.0801 22.7188 33.3268 22.7188 33.2817C21.8523 33.2817 20.9646 33.2817 20.0766 33.2817ZM21.9392 35.2293C21.6793 35.2293 21.376 35.2293 21.1375 35.2293C21.0512 35.2293 20.9646 35.2293 20.8563 35.2293C20.8563 34.8487 20.8563 34.491 20.8563 34.1103C21.2243 34.1103 21.5711 34.1103 21.9392 34.1103C21.9392 34.1325 21.9392 35.2293 21.9392 35.2293Z" fill="white"/>
<path d="M53.8181 31.9166L53.8181 29.1855L43.3145 29.1855L43.3145 33.2817L43.3145 36.0358L50.3103 36.0358L50.3103 37.401L43.3145 37.401L43.3145 40.1543L53.8181 40.1543L53.8181 33.3047L46.8231 33.3047L46.8231 31.9166L53.8181 31.9166Z" fill="white"/>
</g>
<defs>
<linearGradient id="paint0_linear_5509_21553" x1="6" y1="6" x2="64" y2="64" gradientUnits="userSpaceOnUse">
<stop offset="0.155761" stop-color="#B49AFE"/>
<stop offset="0.840274" stop-color="#E1D6FF"/>
</linearGradient>
<clipPath id="clip0_5509_21553">
<rect width="38" height="14" fill="white" transform="translate(16 29)"/>
</clipPath>
</defs>
</svg>
