<svg width="160" height="60" viewBox="0 0 160 60" fill="none" xmlns="http://www.w3.org/2000/svg">
<path d="M84.8199 17.2026V38.9085H79.2935V17.2026H84.8199Z" fill="#F3F3F3"/>
<path d="M100.531 16.807C102.606 16.807 104.851 17.052 107.171 17.523C108.001 17.7114 108.529 18.352 108.529 19.1622V21.8566C106.378 21.4233 103.04 21.0276 101.041 21.0276C95.9858 21.0276 93.8167 22.9495 93.8167 27.9426V28.1875C93.8167 33.1806 95.9858 35.1025 101.041 35.1025C103.021 35.1025 106.378 34.7068 108.529 34.2735V36.9679C108.529 37.7781 108.001 38.4187 107.171 38.6071C104.851 39.0781 102.606 39.3231 100.531 39.3231C92.2701 39.3231 88.2715 35.8562 88.2715 28.3194V27.8295C88.2715 20.2739 92.2701 16.807 100.531 16.807Z" fill="#F3F3F3"/>
<path d="M121.694 21.0087C119.204 21.0087 116.564 21.3101 113.772 21.8377V19.1999C113.772 18.3708 114.338 17.6737 115.206 17.5229C117.714 17.0519 119.883 16.7881 122.373 16.7881C130.559 16.7881 133.614 19.539 133.614 26.4351V38.8897H128.05V36.7417H127.805C126.164 38.5317 123.731 39.2853 120.26 39.2853C114.093 39.2853 110.924 37.0243 110.924 32.2761C110.924 27.6222 114.206 25.5119 120.883 25.5119C121.562 25.5119 122.505 25.5119 123.825 25.6626V29.1672C122.731 29.1295 121.845 29.1107 121.147 29.1107C118.129 29.1107 116.469 30.034 116.469 32.2196C116.469 34.3299 117.959 35.2532 121.241 35.2532C126.108 35.2532 128.031 33.6139 128.031 30.4108V25.2293C128.05 22.0073 126.56 21.0087 121.694 21.0087Z" fill="#F3F3F3"/>
<path d="M148.477 16.807C156.324 16.807 159.737 19.6333 159.737 26.1149V38.9274H154.173V26.3033C154.173 22.648 152.457 21.0276 148.458 21.0276C144.309 21.0276 142.592 22.648 142.592 26.3033V38.9274H137.028V26.1149C137.047 19.6145 140.461 16.807 148.477 16.807Z" fill="#F3F3F3"/>
<path d="M36.1008 36.5157C33.4225 36.3838 30.1406 35.3475 27.0473 33.6894C22.1434 31.0892 17.843 27.66 13.9764 23.6844C13.5992 23.3075 13.2219 22.9118 12.9013 22.4785C12.7881 22.3278 12.7881 21.9509 12.9013 21.8379C14.4668 20.2175 16.0134 18.5782 17.6732 17.052C19.1067 15.7331 20.6345 14.4895 22.1811 13.3213C25.4064 10.8719 28.9335 8.93115 32.8755 7.91369C37.2514 6.78318 41.4763 7.31075 45.5881 9.13841C49.4547 10.853 52.8498 13.246 55.9996 16.0157C57.9612 17.7492 59.8096 19.6145 61.6958 21.4422C62.4314 22.1582 62.4125 22.1959 61.7335 22.9307C58.7723 26.0961 55.4904 28.9036 51.8501 31.2965C49.2472 33.0111 46.5501 34.5185 43.5888 35.4982C41.4386 36.2331 39.213 36.5534 36.1008 36.5157ZM56.0185 22.1393C55.8487 21.9886 55.7733 21.8944 55.6601 21.819C53.8306 20.5943 52.001 19.3884 50.1903 18.1637C49.9263 17.9941 49.6811 17.7115 49.5679 17.4289C48.7191 15.4693 47.5686 13.717 45.7956 12.53C42.3062 10.2312 38.4585 9.53409 34.3844 10.4008C32.1588 10.8719 30.0463 11.7009 28.3299 13.2836C27.0662 14.4518 26.1986 15.9215 25.5196 17.5042C25.4253 17.7303 25.2555 17.9564 25.0669 18.0695C23.1053 19.3884 21.106 20.6697 19.1444 21.9698C19.1067 22.0074 19.0878 22.064 19.0124 22.2335C20.9174 23.4394 22.7847 24.6641 24.7085 25.7947C25.1801 26.0773 25.4441 26.3599 25.6516 26.831C26.5758 28.9224 27.915 30.6936 29.9143 31.8618C33.3282 33.8402 37.0062 34.3112 40.8162 33.5575C44.5696 32.8039 47.4931 30.8255 49.1907 27.3209C49.6245 26.3976 50.1526 25.757 51.0391 25.3236C51.1334 25.2859 51.2277 25.2106 51.322 25.154C52.8686 24.1743 54.4153 23.1756 56.0185 22.1393Z" fill="#F3F3F3"/>
<path d="M59.8096 14.5271C61.7335 11.3617 63.6385 8.23391 65.6378 4.97426C65.2228 4.95542 64.9776 4.91773 64.7324 4.91773C58.3384 4.91773 51.9255 4.89889 45.5315 4.91773C44.8902 4.91773 44.4941 4.767 44.1923 4.1829C43.5322 2.99586 42.8155 1.8465 42.1176 0.678304C42.0044 0.471043 41.9101 0.263787 41.7781 0C52.8875 0 63.9025 0 75.0685 0C74.6347 0.715993 74.2575 1.30009 73.8802 1.90303C70.9001 6.65119 67.9011 11.4182 64.921 16.1664C64.6758 16.5432 64.4495 16.9389 64.242 17.3346C64.0723 17.6549 63.8648 17.7302 63.5819 17.4853C62.3182 16.5244 61.0733 15.5446 59.8096 14.5271Z" fill="#9D0009"/>
<path d="M33.2716 0.0187988C33.3093 0.169534 33.3281 0.188376 33.3281 0.207218C32.4228 1.71457 31.5363 3.24077 30.5744 4.71044C30.4612 4.88002 30.0274 4.89886 29.7445 4.89886C23.2373 4.9177 16.7301 4.9177 10.2229 4.9177C9.99655 4.9177 9.75136 4.9177 9.35526 4.9177C9.63819 5.46411 9.84567 5.89748 10.0909 6.312C11.6941 8.89334 13.2973 11.4558 14.9005 14.0372C15.0891 14.3198 15.2212 14.5836 14.8439 14.8662C13.6368 15.8083 12.4485 16.7693 11.166 17.8056C7.45026 11.8892 3.77228 6.01053 0 0.0187988C11.2603 0.0187988 22.2753 0.0187988 33.2716 0.0187988Z" fill="#9D0009"/>
<path d="M52.3406 37.1939C47.4555 44.806 42.5704 52.3993 37.5721 60.1434C32.6304 52.4559 27.7642 44.8814 22.8979 37.3258C22.9357 37.2881 22.9734 37.2316 23.0111 37.1939C23.6335 37.5331 24.256 37.8722 24.8784 38.2114C24.9161 38.2302 24.9538 38.2679 24.9916 38.2867C27.2361 39.1723 28.4055 41.0753 29.6315 43.016C32.008 46.7844 34.46 50.4963 36.8931 54.227C37.1006 54.5661 37.3269 54.8865 37.6287 55.3387C37.9305 54.8488 38.138 54.4908 38.3643 54.1328C40.2316 51.2688 42.0989 48.4048 43.9662 45.5409C45.0978 43.8074 46.1918 42.0551 47.3424 40.3593C47.663 39.9071 48.0968 39.4738 48.5683 39.1911C49.7566 38.4563 51.0015 37.8157 52.2086 37.1185C52.2463 37.1374 52.284 37.1751 52.3406 37.1939Z" fill="#9D0009"/>
<path d="M37.6662 12.4733C40.1559 12.4545 42.2495 13.4154 44.1357 14.9227C47.0403 17.2403 47.9834 20.3492 47.2101 23.8538C46.4179 27.5091 44.098 29.9963 40.4388 30.9195C36.8175 31.8428 33.4035 31.2775 30.5743 28.6585C28.5184 26.7555 27.5376 24.3249 27.6319 21.5551C27.764 16.8258 31.5928 13.4531 35.5726 12.6994C36.2516 12.5863 36.9683 12.5487 37.6662 12.4733ZM37.6285 29.1107C42.0232 29.0165 45.041 25.8322 44.909 21.3667C44.7958 17.8056 41.5328 14.4705 37.5153 14.5647C33.0263 14.659 30.1971 18.1259 30.2348 22.0827C30.2914 25.9829 33.6865 29.2049 37.6285 29.1107Z" fill="#F3F3F3"/>
<path d="M41.6083 21.8378C41.6083 24.0611 39.7787 25.87 37.5154 25.87C35.2897 25.87 33.4602 23.9669 33.4413 21.6494C33.4224 19.5956 35.252 17.8245 37.4022 17.8245C39.7787 17.8245 41.6083 19.5579 41.6083 21.8378Z" fill="#9D0009"/>
</svg>
